<svg width="40" height="40" viewBox="0 0 40 40" fill="none" xmlns="http://www.w3.org/2000/svg">
<path d="M29.8875 18.2325C29.685 17.785 29.24 17.5 28.75 17.5H23.75V1.25C23.75 0.56 23.19 0 22.5 0H17.5C16.81 0 16.25 0.56 16.25 1.25V17.5H11.25C10.76 17.5 10.315 17.7875 10.1125 18.2325C9.90747 18.68 9.98747 19.2025 10.31 19.5725L19.06 29.5725C19.2975 29.845 19.64 30 20 30C20.36 30 20.7025 29.8425 20.94 29.5725L29.69 19.5725C30.015 19.205 30.09 18.68 29.8875 18.2325Z" fill="#FF9C07"/>
<path d="M33.75 27.5V35H6.25V27.5H1.25V37.5C1.25 38.8825 2.37 40 3.75 40H36.25C37.6325 40 38.75 38.8825 38.75 37.5V27.5H33.75Z" fill="#FF9C07"/>
</svg>
