<svg width="45" height="45" viewBox="0 0 45 45" fill="none" xmlns="http://www.w3.org/2000/svg">
<path d="M22.5 0C10.0735 0 0 10.0735 0 22.5C0 34.9264 10.0735 44.9999 22.5 44.9999C34.9264 44.9999 44.9999 34.9264 44.9999 22.5C44.986 10.0794 34.9206 0.0140319 22.5 0Z" fill="#FF9C07"/>
<path d="M30.8074 9.90782C30.5022 9.73733 30.1293 9.74256 29.8291 9.92149L10.2639 21.6606C9.80086 21.939 9.65127 22.54 9.92962 23.0031C10.0121 23.1402 10.1268 23.2549 10.2639 23.3374L29.8291 35.0765C29.9791 35.1671 30.1507 35.2158 30.3261 35.2174C30.8663 35.2174 31.3044 34.7793 31.3044 34.2391V10.7608C31.3048 10.4076 31.1149 10.0816 30.8074 9.90782Z" fill="#FAFAFA"/>
</svg>
