<svg width="47" height="47" viewBox="0 0 47 47" fill="none" xmlns="http://www.w3.org/2000/svg">
<g clip-path="url(#clip0)">
<path d="M23.3333 45.9994C35.7594 46.0915 45.9073 36.0929 45.9994 23.6668C46.0915 11.2407 36.0929 1.09282 23.6668 1.00073C11.2407 0.908643 1.0928 10.9073 1.00071 23.3333C0.922605 35.7536 10.9131 45.8933 23.3333 45.9994Z" fill="#FF9C07"/>
<path d="M15.0995 36.0303C15.4034 36.203 15.7763 36.2006 16.0779 36.0239L35.7295 24.4301C36.1946 24.1551 36.3487 23.5552 36.0737 23.0901C35.9923 22.9524 35.8784 22.8368 35.7419 22.7534L16.2643 10.8696C16.1149 10.7779 15.9437 10.7279 15.7684 10.725C15.2281 10.721 14.7869 11.1558 14.7829 11.696L14.6089 35.1736C14.6058 35.5268 14.7933 35.8542 15.0995 36.0303Z" fill="#FAFAFA"/>
</g>
<defs>
<clipPath id="clip0">
<rect width="45" height="45" fill="white" transform="translate(45.8326 46.1661) rotate(-179.575)"/>
</clipPath>
</defs>
</svg>
