<svg width="21" height="19" viewBox="0 0 21 19" fill="none" xmlns="http://www.w3.org/2000/svg">
<g clip-path="url(#clip0)">
<path d="M14.5312 11.2746C17.052 8.05398 16.209 3.59438 12.6493 1.31418C9.0897 -0.966022 4.16067 -0.203776 1.64045 3.01738C-0.879773 6.23799 -0.0372909 10.697 3.52294 12.9772C6.06363 14.6047 9.42272 14.73 12.1025 13.2982L17.9252 18.5347C18.5539 19.1335 19.6 19.1575 20.2618 18.5887C20.9236 18.0204 20.9501 17.074 20.322 16.4752C20.3021 16.4561 20.2829 16.4387 20.2618 16.4207L14.5312 11.2746ZM8.08101 11.7628C5.26812 11.7633 2.98758 9.70161 2.98577 7.15661C2.98517 4.61161 5.26391 2.54826 8.0774 2.54717C10.8867 2.54608 13.166 4.60453 13.1714 7.14626C13.1763 9.6918 10.8987 11.7584 8.08463 11.7628C8.08342 11.7628 8.08282 11.7628 8.08101 11.7628Z" fill="#FF9C07"/>
</g>
<defs>
<clipPath id="clip0">
<rect width="21" height="19" fill="white"/>
</clipPath>
</defs>
</svg>
